<svg width="954" height="340" viewBox="0 0 954 340" fill="none" xmlns="http://www.w3.org/2000/svg">
<path d="M288.6 160.412L243.8 183.712C242 170.712 237.5 158.513 231 147.812L274.1 125.312C280.4 136.212 285.3 147.912 288.6 160.412Z" fill="#FFE000"/>
<path d="M291.699 170.813L245.199 195.913C244.999 219.313 236.299 242.713 218.899 260.913C182.599 299.013 121.999 300.513 83.8992 264.213C45.7992 227.913 44.2992 167.313 80.5992 129.213C97.9992 111.013 120.899 101.113 144.199 99.8126L166.999 52.1126C123.399 46.9126 77.8992 61.5126 45.3992 95.7126C-9.40083 153.213 -7.10083 244.513 50.3992 299.313C107.899 354.113 199.199 351.813 253.999 294.313C286.599 260.213 298.999 214.113 291.699 170.813Z" fill="#FFFFFD"/>
<path d="M167.1 52.2125C159.5 68.1125 151.9 84.0125 144.3 99.8125C138 90.4125 124.1 71.9125 101.9 60.2125C98.2 58.2125 90.2 54.1125 78.8 51.3125C52.1 44.8125 25.3 50.3125 4 64.2125L0 11.5125C27.6 -0.287503 59 -3.4875 90.3 4.1125C121.6 11.7125 148 29.1125 167.1 52.2125Z" fill="#FFE000"/>
<path d="M151.273 155.819L125.322 181.77L151.273 207.72L177.223 181.77L151.273 155.819Z" fill="#FFFFFD"/>
<path d="M254.1 294.413C199.8 351.413 109.4 354.112 51.8 300.612C51.1 299.512 43.1 286.112 49.7 271.212C56.5 255.812 72.7 253.113 73.8 252.913C75.2 254.713 76.8 256.712 78.6 258.712C80.3 260.612 82.1 262.412 84 264.212C122.1 300.512 182.6 299.013 219 260.913C236.4 242.713 245.1 219.313 245.3 195.913L291.8 170.812C299 214.013 286.6 260.213 254.1 294.413Z" fill="#334E59"/>
<mask id="mask0_460_51" style="mask-type:luminance" maskUnits="userSpaceOnUse" x="5" y="51" width="289" height="288">
<path d="M291.699 170.813L245.199 195.913C244.999 219.313 236.299 242.713 218.899 260.913C182.599 299.013 121.999 300.513 83.8992 264.213C45.7992 227.913 44.2992 167.313 80.5992 129.213C97.9992 111.013 120.899 101.113 144.199 99.8126L166.999 52.1126C123.399 46.9126 77.8992 61.5126 45.3992 95.7126C-9.40083 153.213 -7.10083 244.513 50.3992 299.313C107.899 354.113 199.199 351.813 253.999 294.313C286.599 260.213 298.999 214.113 291.699 170.813Z" fill="white"/>
</mask>
<g mask="url(#mask0_460_51)">
<path d="M254.1 294.413C199.8 351.413 109.4 354.112 51.8 300.612C51.1 299.512 43.1 286.112 49.7 271.212C56.5 255.812 72.7 253.113 73.8 252.913C75.2 254.713 76.8 256.712 78.6 258.712C80.3 260.612 82.1 262.412 84 264.212C122.1 300.512 182.6 299.013 219 260.913C236.4 242.713 245.1 219.313 245.3 195.913L291.8 170.812C299 214.013 286.6 260.213 254.1 294.413Z" fill="#FFE000"/>
</g>
<path d="M351.195 188.305V178.734H378.734V188.305C378.865 193.773 381.404 197.289 386.352 198.852C386.872 199.112 387.328 199.242 387.719 199.242V226.977C380.557 226.977 373.331 224.177 366.039 218.578C356.273 210.896 351.326 200.805 351.195 188.305ZM398.266 226.977V199.242C400.609 199.242 403.083 198.135 405.688 195.922C407.901 193.839 409.073 191.299 409.203 188.305V89.2812H436.547V188.305C436.547 202.758 430.102 213.695 417.211 221.117C410.57 225.023 404.255 226.977 398.266 226.977ZM450.219 195.727V144.75C450.219 138.37 453.018 132.12 458.617 126C465.648 118.578 474.568 114.802 485.375 114.672V140.062C479.516 140.583 476.391 143.057 476 147.484V192.992C476.26 198.07 479.385 200.674 485.375 200.805V226.195C472.615 226.195 462.719 221.052 455.688 210.766C452.042 205.427 450.219 200.414 450.219 195.727ZM494.359 226.195V200.805C499.828 200.154 502.823 197.68 503.344 193.383L503.148 147.484C502.237 142.797 499.242 140.323 494.164 140.062V114.672C506.404 114.672 515.974 119.62 522.875 129.516C526.521 134.854 528.344 139.932 528.344 144.75V195.727C528.344 202.237 525.544 208.617 519.945 214.867C513.174 222.289 504.646 226.065 494.359 226.195ZM543.188 195.727V144.75C543.188 138.37 545.987 132.12 551.586 126C558.617 118.578 567.536 114.802 578.344 114.672V140.062C572.484 140.583 569.359 143.057 568.969 147.484V192.992C569.229 198.07 572.354 200.674 578.344 200.805V226.195C565.583 226.195 555.688 221.052 548.656 210.766C545.01 205.427 543.188 200.414 543.188 195.727ZM587.328 226.195V200.805C592.797 200.154 595.792 197.68 596.312 193.383L596.117 147.484C595.206 142.797 592.211 140.323 587.133 140.062V114.672C599.372 114.672 608.943 119.62 615.844 129.516C619.49 134.854 621.312 139.932 621.312 144.75V195.727C621.312 202.237 618.513 208.617 612.914 214.867C606.143 222.289 597.615 226.065 587.328 226.195ZM636.156 226V144.945C636.156 138.435 639.086 132.055 644.945 125.805C652.107 118.383 661.026 114.607 671.703 114.477V140.453C666.234 141.104 663.24 143.643 662.719 148.07V226H636.156ZM680.688 140.453V114.477C693.318 114.477 703.279 119.49 710.57 129.516C714.477 134.984 716.43 140.128 716.43 144.945V226H689.867V148.07C689.867 143.773 687.458 141.299 682.641 140.648C681.99 140.518 681.339 140.453 680.688 140.453ZM732.055 226V139.281H733.812L759.594 201.195V226H732.055ZM732.055 107.25V89.2812H753.539L790.844 179.711L811.547 133.031H813.5V196.508L800.414 226H781.469L732.055 107.25ZM824.047 226V89.2812H851.586V226H824.047ZM863.695 195.141L888.5 186.352C888.5 189.607 889.411 192.471 891.234 194.945C893.057 197.419 894.88 199.047 896.703 199.828L899.438 201.195V226.586C888.37 226.586 878.93 221.768 871.117 212.133C866.299 206.013 863.826 200.349 863.695 195.141ZM865.258 126.781C865.258 112.458 871.378 101.716 883.617 94.5547C889.216 91.1693 894.49 89.4115 899.438 89.2812V115.062C896.182 115.974 893.773 118.318 892.211 122.094C891.69 123.266 891.43 124.503 891.43 125.805C891.43 131.143 895.401 135.701 903.344 139.477C905.036 140.258 907.771 141.43 911.547 142.992C917.797 145.466 922.224 147.484 924.828 149.047C935.375 155.297 942.406 161.677 945.922 168.188C948.526 173.266 949.828 178.93 949.828 185.18C949.828 197.029 945.336 207.185 936.352 215.648C928.669 222.94 919.945 226.586 910.18 226.586V201.195C915.258 200.544 918.839 197.875 920.922 193.188C921.833 191.104 922.289 188.826 922.289 186.352C922.289 179.711 917.341 174.242 907.445 169.945C905.622 169.164 902.758 168.057 898.852 166.625C894.294 165.062 891.104 163.826 889.281 162.914C878.083 157.576 870.922 150.674 867.797 142.211C866.104 137.654 865.258 132.51 865.258 126.781ZM910.18 115.062V89.2812C921.117 89.2812 930.297 93.9036 937.719 103.148C942.016 108.617 944.229 113.565 944.359 117.992L918.969 126.391C918.969 120.922 916.299 117.211 910.961 115.258C910.44 115.128 910.18 115.062 910.18 115.062Z" fill="#FFE000"/>
</svg>
